<svg width="10" height="17" viewBox="0 0 10 17" fill="none" xmlns="http://www.w3.org/2000/svg">
<path d="M6.85916 0.565804C5.76827 0.565804 4.72205 0.999158 3.95068 1.77053C3.1793 2.54191 2.74595 3.58812 2.74595 4.67901V6.96906H0.544828C0.434315 6.96906 0.344727 7.05865 0.344727 7.16917V10.1929C0.344727 10.3034 0.434315 10.393 0.544828 10.393H2.74595V16.5962C2.74595 16.7067 2.83554 16.7963 2.94605 16.7963H5.96981C6.08033 16.7963 6.16992 16.7067 6.16992 16.5962V10.393H8.39053C8.48235 10.393 8.56239 10.3305 8.58466 10.2415L9.3406 7.2177C9.37217 7.0914 9.27665 6.96906 9.14647 6.96906H6.16992V4.67901C6.16992 4.49621 6.24253 4.3209 6.37179 4.19164C6.50105 4.06239 6.67636 3.98977 6.85916 3.98977H9.17144C9.28196 3.98977 9.37155 3.90018 9.37155 3.78967V0.765905C9.37155 0.655392 9.28196 0.565804 9.17144 0.565804H6.85916Z" fill="#E5E5E5"/>
</svg>
