<svg width="22" height="22" viewBox="0 0 22 22" fill="none" xmlns="http://www.w3.org/2000/svg">
<path d="M12.6297 2.55676C11.5388 2.55676 10.4926 2.99012 9.72119 3.76149C8.94981 4.53287 8.51646 5.57908 8.51646 6.66997V8.96002H6.31534C6.20482 8.96002 6.11523 9.04961 6.11523 9.16013V12.1839C6.11523 12.2944 6.20482 12.384 6.31534 12.384H8.51646V18.5871C8.51646 18.6977 8.60605 18.7873 8.71656 18.7873H11.7403C11.8508 18.7873 11.9404 18.6977 11.9404 18.5871V12.384H14.161C14.2529 12.384 14.3329 12.3215 14.3552 12.2324L15.1111 9.20866C15.1427 9.08236 15.0472 8.96002 14.917 8.96002H11.9404V6.66997C11.9404 6.48717 12.013 6.31186 12.1423 6.1826C12.2716 6.05334 12.4469 5.98073 12.6297 5.98073H14.942C15.0525 5.98073 15.1421 5.89114 15.1421 5.78063V2.75686C15.1421 2.64635 15.0525 2.55676 14.942 2.55676H12.6297Z" fill="#2D2D2B"/>
</svg>
