<svg width="22" height="22" viewBox="0 0 22 22" fill="none" xmlns="http://www.w3.org/2000/svg">
<path d="M11.0186 7.78183C9.42235 7.78183 8.12829 9.07589 8.12829 10.6722C8.12829 12.2685 9.42235 13.5626 11.0186 13.5626C12.6149 13.5626 13.909 12.2685 13.909 10.6722C13.909 9.07589 12.6149 7.78183 11.0186 7.78183Z" fill="#2D2D2B"/>
<path fill-rule="evenodd" clip-rule="evenodd" d="M6.36698 2.74057C9.43354 2.39784 12.6038 2.39784 15.6703 2.74057C17.3587 2.92927 18.7204 4.25952 18.9186 5.95377C19.2852 9.0887 19.2852 12.2557 18.9186 15.3906C18.7204 17.0849 17.3587 18.4151 15.6703 18.6038C12.6038 18.9465 9.43354 18.9465 6.36698 18.6038C4.67866 18.4151 3.3169 17.0849 3.11874 15.3906C2.75209 12.2557 2.75209 9.0887 3.11874 5.95377C3.3169 4.25952 4.67865 2.92927 6.36698 2.74057ZM15.4654 5.33614C14.9742 5.33614 14.576 5.73431 14.576 6.22548C14.576 6.71665 14.9742 7.11483 15.4654 7.11483C15.9565 7.11483 16.3547 6.71665 16.3547 6.22548C16.3547 5.73431 15.9565 5.33614 15.4654 5.33614ZM6.79427 10.6722C6.79427 8.33914 8.68559 6.44782 11.0186 6.44782C13.3517 6.44782 15.243 8.33914 15.243 10.6722C15.243 13.0052 13.3517 14.8966 11.0186 14.8966C8.68559 14.8966 6.79427 13.0052 6.79427 10.6722Z" fill="#2D2D2B"/>
</svg>
