<svg width="17" height="17" viewBox="0 0 17 17" fill="none" xmlns="http://www.w3.org/2000/svg">
<path d="M8.24716 5.7908C6.65086 5.7908 5.3568 7.08486 5.3568 8.68116C5.3568 10.2775 6.65086 11.5715 8.24716 11.5715C9.84346 11.5715 11.1375 10.2775 11.1375 8.68116C11.1375 7.08486 9.84346 5.7908 8.24716 5.7908Z" fill="#E5E5E5"/>
<path fill-rule="evenodd" clip-rule="evenodd" d="M3.59549 0.749535C6.66205 0.406802 9.8323 0.406802 12.8989 0.749535C14.5872 0.93823 15.9489 2.26849 16.1471 3.96273C16.5137 7.09766 16.5137 10.2647 16.1471 13.3996C15.9489 15.0938 14.5872 16.4241 12.8989 16.6128C9.8323 16.9555 6.66205 16.9555 3.5955 16.6128C1.90717 16.4241 0.545417 15.0938 0.34726 13.3996C-0.0193991 10.2647 -0.0193991 7.09766 0.34726 3.96273C0.545417 2.26849 1.90717 0.93823 3.59549 0.749535ZM12.6939 3.34511C12.2027 3.34511 11.8045 3.74328 11.8045 4.23445C11.8045 4.72562 12.2027 5.12379 12.6939 5.12379C13.185 5.12379 13.5832 4.72562 13.5832 4.23445C13.5832 3.74328 13.185 3.34511 12.6939 3.34511ZM4.02279 8.68116C4.02279 6.3481 5.91411 4.45678 8.24716 4.45678C10.5802 4.45678 12.4715 6.3481 12.4715 8.68116C12.4715 11.0142 10.5802 12.9055 8.24716 12.9055C5.91411 12.9055 4.02279 11.0142 4.02279 8.68116Z" fill="#E5E5E5"/>
</svg>
